<svg width="502" height="93" viewBox="0 0 502 93" fill="none" xmlns="http://www.w3.org/2000/svg">
<path d="M57.662 28.9802C57.662 44.8605 44.7423 57.7802 28.862 57.7802C12.9817 57.7802 0.0620117 44.8605 0.0620117 28.9802C0.0620117 13.0999 12.9817 0.180222 28.862 0.180222C36.2882 0.180222 43.0659 3.00629 48.1788 7.63833C39.3165 -0.174561 25.7468 0.148093 17.2794 8.61552C8.47158 17.4234 8.47158 31.755 17.2796 40.5629C26.0876 49.3707 40.4192 49.3707 49.2271 40.5628C57.6948 32.0951 58.0171 18.5246 50.203 9.66249C54.8356 14.7754 57.662 21.5537 57.662 28.9802Z" fill="#5E4DA0"/>
<path d="M17.2792 8.61552C8.47136 17.4234 8.47136 31.755 17.2794 40.5629C26.0874 49.3707 40.419 49.3707 49.2268 40.5628C57.6946 32.0951 58.0169 18.5246 50.2028 9.66249C49.5618 8.95492 48.886 8.27939 48.1786 7.63832C39.3163 -0.174564 25.7466 0.14809 17.2792 8.61552ZM45.2423 28.9802C45.2423 38.0123 37.8938 45.3606 28.8618 45.3606C19.8298 45.3606 12.4813 38.0123 12.4813 28.9802C12.4813 19.9481 19.8298 12.5998 28.8618 12.5998C37.8938 12.5998 45.2423 19.9481 45.2423 28.9802Z" fill="#5E4DA0"/>
<path opacity="0.59" d="M17.2792 8.61552C8.47136 17.4234 8.47136 31.755 17.2794 40.5629C26.0874 49.3707 40.419 49.3707 49.2268 40.5628C57.6946 32.0951 58.0169 18.5246 50.2028 9.66249C49.5618 8.95492 48.886 8.27939 48.1786 7.63832C39.3163 -0.174564 25.7466 0.14809 17.2792 8.61552ZM45.2423 28.9802C45.2423 38.0123 37.8938 45.3606 28.8618 45.3606C19.8298 45.3606 12.4813 38.0123 12.4813 28.9802C12.4813 19.9481 19.8298 12.5998 28.8618 12.5998C37.8938 12.5998 45.2423 19.9481 45.2423 28.9802Z" fill="url(#paint0_radial_107_138)"/>
<path d="M89.9107 15.4524C77.7517 15.4524 67.8599 25.3441 67.8599 37.5033C67.8599 37.5824 67.8649 37.6602 67.8657 37.7391H67.8599V73.3979H78.9282V56.6116C82.1646 58.4788 85.9134 59.5533 89.9107 59.5533C102.069 59.5533 111.961 49.6616 111.961 37.5033C111.961 25.3441 102.069 15.4524 89.9107 15.4524ZM89.9107 48.485C83.8552 48.485 78.928 43.5587 78.928 37.5033C78.928 31.4478 83.8552 26.5206 89.9107 26.5206C95.9661 26.5206 100.892 31.4478 100.892 37.5033C100.892 43.5587 95.9661 48.485 89.9107 48.485Z" fill="#5E4DA0"/>
<path d="M162.783 41.6856C163.056 40.3318 163.192 38.9355 163.192 37.505C163.192 36.1682 163.073 34.8655 162.835 33.5968C160.996 23.2943 151.962 15.4523 141.139 15.4523C128.981 15.4523 119.087 25.3463 119.087 37.505C119.087 49.6637 128.981 59.5576 141.139 59.5576C150.701 59.5576 158.858 53.4357 161.915 44.9126H149.246C147.236 47.1093 144.349 48.4887 141.139 48.4887C136.567 48.4887 132.633 45.6705 130.99 41.6856H151.297H162.783V41.6856ZM130.879 33.5968C132.455 29.4673 136.465 26.5212 141.139 26.5212C145.822 26.5212 149.824 29.4673 151.408 33.5968H130.879Z" fill="#5E4DA0"/>
<path d="M214.767 37.099L214.766 58.7464H203.687V37.0913C203.682 31.2679 198.944 26.5321 193.119 26.5321C187.292 26.5321 182.552 31.2721 182.552 37.099H182.552V58.7464H171.472L171.473 37.099C171.473 25.1629 181.183 15.4524 193.119 15.4524C205.055 15.4524 214.767 25.1629 214.767 37.099Z" fill="#5E4DA0"/>
<path d="M266.153 40.0502C266.184 40.4996 266.163 41.07 266.142 41.6048C266.095 42.1523 266.047 42.6976 265.943 43.2477C265.75 44.3421 265.444 45.4404 264.999 46.4714C264.124 48.5458 262.796 50.3416 261.322 51.7354C259.846 53.1441 258.235 54.2012 256.616 55.0176C253.364 56.641 250.058 57.4185 246.788 57.6852C245.968 57.7541 245.153 57.7742 244.335 57.7802C243.451 57.7683 242.566 57.7341 241.681 57.6257C239.912 57.4339 238.154 57.0186 236.447 56.4162C233.046 55.1908 229.82 53.1164 227.358 50.0882C226.127 48.5843 225.101 46.839 224.391 44.9287C223.675 43.0201 223.329 40.9412 223.348 38.8929H235.735C235.796 39.9943 236.2 41.0453 237.069 42.0636C237.935 43.0619 239.225 43.9468 240.722 44.4822C241.476 44.7396 242.27 44.9353 243.094 45.0179C243.504 45.0714 243.923 45.0785 244.342 45.0884C244.827 45.0806 245.316 45.0712 245.796 45.0271C247.714 44.8867 249.58 44.449 251.006 43.7552C251.721 43.4175 252.311 43.0193 252.73 42.636C253.159 42.2503 253.4 41.8972 253.555 41.574C253.638 41.4121 253.68 41.2439 253.723 41.0587C253.769 40.8509 253.783 40.7201 253.785 40.3636C253.804 39.6484 253.699 39.1379 253.602 38.7251C253.469 38.3271 253.349 37.9517 252.964 37.4948C252.602 37.04 251.991 36.5343 251.202 36.0546C249.614 35.0742 247.39 34.2502 244.979 33.5904C242.554 32.9056 239.923 32.2894 237.086 31.3134C235.664 30.8222 234.18 30.2347 232.641 29.387C231.114 28.5455 229.482 27.4212 228.062 25.8037C226.645 24.1965 225.543 22.0874 225.065 20.0193C224.809 18.9855 224.674 17.9645 224.634 16.9976C224.582 16.0318 224.61 15.0226 224.754 13.9832C225.016 11.9144 225.81 9.71841 227.076 7.88197C228.33 6.03041 229.973 4.57826 231.643 3.53822C233.101 2.64653 234.562 2.00971 236.009 1.53295C237.924 0.902094 239.815 0.559712 241.64 0.35668C242.446 0.2724 243.244 0.218304 244.035 0.194864L244.636 0.180222L245.309 0.190182C245.757 0.197214 246.207 0.232563 246.656 0.264395C248.452 0.425531 250.244 0.793108 251.976 1.39936C255.438 2.59311 258.678 4.7309 261.112 7.77914C263.571 10.7814 265.074 14.8521 265.016 18.9147H252.629C252.597 17.7475 252.151 16.6634 251.332 15.6171C250.501 14.5894 249.251 13.7052 247.805 13.1626C247.081 12.8897 246.304 12.7154 245.506 12.6244C245.305 12.6099 245.105 12.5845 244.901 12.5798L244.597 12.5681L244.221 12.562C243.707 12.5538 243.203 12.5667 242.71 12.596C240.744 12.6993 238.928 13.1525 237.824 13.7718C237.259 14.0674 236.892 14.3642 236.646 14.6492C236.398 14.9365 236.218 15.2358 236.1 15.7449C235.97 16.2128 235.969 17.0509 236.053 17.4787C236.128 17.9618 236.255 18.2376 236.515 18.6218C236.678 18.8373 236.924 19.0857 237.24 19.3417C237.463 19.5222 237.716 19.706 238.022 19.8865C238.161 19.9694 238.314 20.051 238.467 20.1326C238.501 20.1513 238.534 20.1703 238.568 20.1886C238.817 20.3185 239.084 20.446 239.363 20.5715C239.465 20.6171 239.568 20.6628 239.672 20.7055C240.007 20.8492 240.353 20.9908 240.717 21.1267C242.798 21.8923 245.239 22.5197 247.837 23.224C250.442 23.9611 253.254 24.6125 256.329 25.9855C257.857 26.6932 259.469 27.6007 261.005 28.939C262.538 30.249 263.947 32.0572 264.822 34.0628C265.719 36.0634 266.085 38.1613 266.153 40.0502Z" fill="#5E4DA0"/>
<path d="M318.933 41.6856C319.206 40.3318 319.342 38.9355 319.342 37.505C319.342 36.1682 319.223 34.8655 318.984 33.5968C317.145 23.2943 308.111 15.4523 297.289 15.4523C285.131 15.4523 275.237 25.3463 275.237 37.505C275.237 49.6637 285.131 59.5576 297.289 59.5576C306.851 59.5576 315.008 53.4357 318.065 44.9126H305.395C303.386 47.1093 300.499 48.4887 297.289 48.4887C292.717 48.4887 288.783 45.6705 287.14 41.6856H307.447H318.933V41.6856ZM287.029 33.5968C288.605 29.4673 292.615 26.5212 297.289 26.5212C301.972 26.5212 305.974 29.4673 307.558 33.5968H287.029Z" fill="#5E4DA0"/>
<path d="M370.246 37.3068C370.246 25.2564 360.443 15.4524 348.392 15.4524C336.341 15.4524 326.537 25.2564 326.537 37.3068C326.537 49.358 336.341 59.162 348.392 59.162C352.354 59.162 356.069 58.097 359.277 56.2464V58.7697H370.246V37.511H370.241C370.242 37.4427 370.246 37.3753 370.246 37.3068ZM348.392 48.192C342.391 48.192 337.507 43.3085 337.507 37.3068C337.507 31.3051 342.391 26.4224 348.392 26.4224C354.394 26.4224 359.277 31.3051 359.277 37.3068C359.277 43.3085 354.394 48.192 348.392 48.192Z" fill="#5E4DA0"/>
<path d="M399.194 15.4523V26.48C394.74 26.48 391.118 30.1024 391.118 34.5558H391.118V58.5432H380.09V34.5561H380.09C380.09 24.0221 388.66 15.4523 399.194 15.4523Z" fill="#5E4DA0"/>
<path d="M436.7 43.3989H448.685C446.106 52.703 437.56 59.5471 427.447 59.5471C415.291 59.5471 405.399 49.6556 405.399 37.4998C405.399 25.344 415.291 15.4523 427.447 15.4523C437.56 15.4523 446.106 22.2964 448.685 31.6006H436.7C434.751 28.5447 431.329 26.5186 427.447 26.5186C421.394 26.5186 416.466 31.4474 416.466 37.4998C416.466 43.5521 421.394 48.4808 427.447 48.4808C431.329 48.4808 434.751 46.4549 436.7 43.3989Z" fill="#5E4DA0"/>
<path d="M501.938 37.562H490.855V58.788H501.938V37.562Z" fill="#5E4DA0"/>
<path d="M501.938 37.5617C501.938 25.3879 492.033 15.4835 479.859 15.4835C475.856 15.4835 472.103 16.5593 468.863 18.4289V1.18803H457.78V58.788H468.863V37.5617H468.863C468.863 31.4985 473.796 26.5659 479.859 26.5659C485.922 26.5659 490.855 31.4985 490.855 37.5617H501.938V37.5617Z" fill="#5E4DA0"/>
<path d="M77.7744 88.3979H74.2223V84.2213L67.813 76.7737H72.177L75.9944 81.3953L79.9915 76.7737H84.1993L77.7744 84.2213V88.3979ZM90.7179 88.5384C89.3595 88.5384 88.3655 88.4786 87.7357 88.3589C87.106 88.2339 86.5933 88.0232 86.1978 87.7265C85.7502 87.3934 85.4275 86.9589 85.2298 86.4228C85.032 85.8815 84.9331 85.1659 84.9331 84.276V81.1064C84.9331 80.1332 85.032 79.3629 85.2298 78.7956C85.4275 78.2284 85.7502 77.7782 86.1978 77.4451C86.5881 77.1536 87.106 76.9455 87.7513 76.8206C88.4019 76.6956 89.3855 76.6332 90.7023 76.6332H94.8788C96.2008 76.6332 97.187 76.6956 97.8376 76.8206C98.4933 76.9455 99.0138 77.1536 99.3989 77.4451C99.8309 77.773 100.146 78.2206 100.344 78.7878C100.547 79.3551 100.648 80.0812 100.648 80.9659V84.2057C100.648 85.1009 100.547 85.8295 100.344 86.3916C100.146 86.9484 99.8309 87.3934 99.3989 87.7265C99.0086 88.0232 98.4933 88.2339 97.8532 88.3589C97.2131 88.4786 96.2216 88.5384 94.8788 88.5384H90.7179ZM91.6781 85.6343H93.9342C95.1885 85.6343 96.0212 85.4782 96.4324 85.1659C96.8435 84.8484 97.0491 84.2629 97.0491 83.4094V81.7622C97.0491 80.9087 96.8435 80.3258 96.4324 80.0135C96.0212 79.696 95.1885 79.5373 93.9342 79.5373H91.6625C90.3822 79.5373 89.5417 79.696 89.1409 80.0135C88.7454 80.331 88.5476 80.9347 88.5476 81.8246V83.4406C88.5476 84.2786 88.7558 84.8536 89.1722 85.1659C89.5937 85.4782 90.429 85.6343 91.6781 85.6343ZM102.771 76.7737H106.316V83.667C106.316 84.4529 106.493 84.9812 106.847 85.2518C107.206 85.5172 107.984 85.6499 109.181 85.6499H111.195C112.189 85.6499 112.855 85.5094 113.193 85.2284C113.532 84.9421 113.701 84.4217 113.701 83.667V76.7737H117.253V84.7678C117.253 86.1365 116.883 87.1072 116.144 87.6797C115.41 88.2522 114.138 88.5384 112.327 88.5384H108.361C106.232 88.5384 104.767 88.2652 103.966 87.7187C103.17 87.1722 102.771 86.1886 102.771 84.7678V76.7737ZM128.838 79.67H123.194V82.5116H128.838C129.312 82.5116 129.642 82.4023 129.829 82.1838C130.022 81.96 130.118 81.5592 130.118 80.9815C130.118 80.5235 130.017 80.1904 129.814 79.9823C129.611 79.7741 129.286 79.67 128.838 79.67ZM128.971 76.7737C130.813 76.7737 132.067 77.0469 132.734 77.5934C133.4 78.1399 133.733 79.1365 133.733 80.5834C133.733 81.5878 133.584 82.3347 133.288 82.8239C132.991 83.3131 132.494 83.641 131.797 83.8075C132.411 83.9533 132.871 84.2109 133.179 84.5804C133.486 84.9499 133.639 85.4287 133.639 86.0168V88.3979H130.087V86.6258C130.087 86.1678 129.978 85.8529 129.759 85.6812C129.546 85.5094 129.122 85.4235 128.487 85.4235H123.194V88.3979H119.634V76.7737H128.971ZM154.912 80.9659V80.8488C154.912 80.396 154.761 80.0655 154.46 79.8574C154.163 79.644 153.689 79.5373 153.039 79.5373H150.197C148.979 79.5373 148.196 79.6856 147.847 79.9823C147.504 80.2737 147.332 80.8878 147.332 81.8246V83.4406C147.332 84.2786 147.525 84.8536 147.91 85.1659C148.295 85.4782 149.057 85.6343 150.197 85.6343H152.258C153.387 85.6343 154.126 85.5224 154.475 85.2986C154.829 85.0696 155.006 84.6481 155.006 84.0339V83.909H158.605C158.605 83.9246 158.608 83.9533 158.613 83.9949C158.628 84.3332 158.636 84.5856 158.636 84.7522C158.636 85.4964 158.542 86.1105 158.355 86.5945C158.168 87.0786 157.874 87.4663 157.473 87.7577C157.093 88.0388 156.586 88.2392 155.951 88.3589C155.321 88.4786 154.395 88.5384 153.171 88.5384H149.206C147.993 88.5384 147.1 88.4734 146.528 88.3432C145.955 88.2131 145.466 87.9919 145.06 87.6797C144.592 87.3102 144.251 86.8574 144.038 86.3213C143.824 85.78 143.718 85.0983 143.718 84.276V81.1064C143.718 79.441 144.113 78.2804 144.904 77.6246C145.695 76.9637 147.129 76.6332 149.206 76.6332H153.171C154.447 76.6332 155.386 76.6904 155.99 76.8049C156.593 76.9194 157.07 77.112 157.418 77.3826C157.788 77.6637 158.058 78.0436 158.23 78.5224C158.407 78.996 158.496 79.5919 158.496 80.3101C158.496 80.4819 158.493 80.6146 158.488 80.7083C158.488 80.7968 158.483 80.8826 158.472 80.9659H154.912ZM160.572 76.7737H164.116V83.667C164.116 84.4529 164.293 84.9812 164.647 85.2518C165.006 85.5172 165.784 85.6499 166.982 85.6499H168.996C169.99 85.6499 170.656 85.5094 170.994 85.2284C171.332 84.9421 171.502 84.4217 171.502 83.667V76.7737H175.054V84.7678C175.054 86.1365 174.684 87.1072 173.945 87.6797C173.211 88.2522 171.939 88.5384 170.128 88.5384H166.162C164.033 88.5384 162.568 88.2652 161.767 87.7187C160.97 87.1722 160.572 86.1886 160.572 84.7678V76.7737ZM177.224 84.5336L180.729 84.5258V84.7365C180.729 85.1737 180.836 85.4704 181.049 85.6265C181.263 85.7774 181.71 85.8529 182.392 85.8529H186.85C187.287 85.8529 187.599 85.78 187.786 85.6343C187.974 85.4834 188.067 85.2362 188.067 84.8927C188.067 84.544 187.958 84.2942 187.74 84.1432C187.526 83.9923 187.063 83.8908 186.35 83.8388L180.776 83.7139C179.381 83.6722 178.437 83.4068 177.942 82.9176C177.453 82.4284 177.208 81.5384 177.208 80.2477C177.208 79.5815 177.273 79.0325 177.403 78.6005C177.534 78.1685 177.742 77.8094 178.028 77.5232C178.366 77.2005 178.809 76.9715 179.355 76.8362C179.902 76.7009 180.792 76.6332 182.025 76.6332H187.443C188.786 76.6332 189.751 76.8778 190.339 77.367C190.932 77.8562 191.229 78.6499 191.229 79.7481C191.229 79.8209 191.227 79.899 191.221 79.9823C191.221 80.0655 191.214 80.2009 191.198 80.3882H187.779V80.3414C187.779 79.9562 187.68 79.6674 187.482 79.4748C187.289 79.2823 186.998 79.186 186.608 79.186H182.517C181.835 79.186 181.385 79.2536 181.166 79.389C180.948 79.5243 180.838 79.7611 180.838 80.0994C180.838 80.4325 180.937 80.6745 181.135 80.8254C181.333 80.9711 181.697 81.0648 182.228 81.1064L188.067 81.2001C189.4 81.2365 190.337 81.5358 190.878 82.0979C191.424 82.66 191.698 83.6202 191.698 84.9786C191.698 85.7852 191.596 86.4098 191.393 86.8522C191.195 87.2945 190.86 87.6719 190.386 87.9841C190.074 88.1819 189.65 88.3224 189.114 88.4057C188.577 88.4942 187.802 88.5384 186.787 88.5384H182.056C180.115 88.5384 178.816 88.3224 178.161 87.8905C177.505 87.4533 177.177 86.6414 177.177 85.4548C177.177 85.3871 177.18 85.2752 177.185 85.1191C177.195 84.9577 177.208 84.7626 177.224 84.5336ZM201.354 88.3979H197.81V79.6232H192.947V76.7737H206.218V79.6232H201.354V88.3979ZM213.314 88.5384C211.956 88.5384 210.962 88.4786 210.332 88.3589C209.702 88.2339 209.19 88.0232 208.794 87.7265C208.347 87.3934 208.024 86.9589 207.826 86.4228C207.628 85.8815 207.53 85.1659 207.53 84.276V81.1064C207.53 80.1332 207.628 79.3629 207.826 78.7956C208.024 78.2284 208.347 77.7782 208.794 77.4451C209.185 77.1536 209.702 76.9455 210.348 76.8206C210.998 76.6956 211.982 76.6332 213.299 76.6332H217.475C218.797 76.6332 219.783 76.6956 220.434 76.8206C221.09 76.9455 221.61 77.1536 221.995 77.4451C222.427 77.773 222.742 78.2206 222.94 78.7878C223.143 79.3551 223.244 80.0812 223.244 80.9659V84.2057C223.244 85.1009 223.143 85.8295 222.94 86.3916C222.742 86.9484 222.427 87.3934 221.995 87.7265C221.605 88.0232 221.09 88.2339 220.45 88.3589C219.809 88.4786 218.818 88.5384 217.475 88.5384H213.314ZM214.274 85.6343H216.531C217.785 85.6343 218.618 85.4782 219.029 85.1659C219.44 84.8484 219.646 84.2629 219.646 83.4094V81.7622C219.646 80.9087 219.44 80.3258 219.029 80.0135C218.618 79.696 217.785 79.5373 216.531 79.5373H214.259C212.979 79.5373 212.138 79.696 211.737 80.0135C211.342 80.331 211.144 80.9347 211.144 81.8246V83.4406C211.144 84.2786 211.352 84.8536 211.769 85.1659C212.19 85.4782 213.025 85.6343 214.274 85.6343ZM228.85 88.3979H225.399V76.7737H230.637L234.783 84.0339L238.998 76.7737H244.166V88.3979H240.731V80.115L235.93 88.3979H233.612L228.85 80.115V88.3979ZM254.214 84.5336L257.719 84.5258V84.7365C257.719 85.1737 257.825 85.4704 258.039 85.6265C258.252 85.7774 258.7 85.8529 259.382 85.8529H263.839C264.276 85.8529 264.589 85.78 264.776 85.6343C264.963 85.4834 265.057 85.2362 265.057 84.8927C265.057 84.544 264.948 84.2942 264.729 84.1432C264.516 83.9923 264.053 83.8908 263.34 83.8388L257.766 83.7139C256.371 83.6722 255.426 83.4068 254.932 82.9176C254.443 82.4284 254.198 81.5384 254.198 80.2477C254.198 79.5815 254.263 79.0325 254.393 78.6005C254.523 78.1685 254.731 77.8094 255.018 77.5232C255.356 77.2005 255.798 76.9715 256.345 76.8362C256.891 76.7009 257.781 76.6332 259.015 76.6332H264.433C265.775 76.6332 266.741 76.8778 267.329 77.367C267.922 77.8562 268.219 78.6499 268.219 79.7481C268.219 79.8209 268.216 79.899 268.211 79.9823C268.211 80.0655 268.203 80.2009 268.188 80.3882H264.768V80.3414C264.768 79.9562 264.669 79.6674 264.472 79.4748C264.279 79.2823 263.988 79.186 263.597 79.186H259.507C258.825 79.186 258.375 79.2536 258.156 79.389C257.937 79.5243 257.828 79.7611 257.828 80.0994C257.828 80.4325 257.927 80.6745 258.125 80.8254C258.322 80.9711 258.687 81.0648 259.218 81.1064L265.057 81.2001C266.389 81.2365 267.326 81.5358 267.867 82.0979C268.414 82.66 268.687 83.6202 268.687 84.9786C268.687 85.7852 268.586 86.4098 268.383 86.8522C268.185 87.2945 267.849 87.6719 267.376 87.9841C267.063 88.1819 266.639 88.3224 266.103 88.4057C265.567 88.4942 264.792 88.5384 263.777 88.5384H259.046C257.105 88.5384 255.806 88.3224 255.15 87.8905C254.495 87.4533 254.167 86.6414 254.167 85.4548C254.167 85.3871 254.169 85.2752 254.175 85.1191C254.185 84.9577 254.198 84.7626 254.214 84.5336ZM283.418 79.6075H274.269V81.3641H282.888V83.8075H274.269V85.5875H283.559V88.3979H270.725V76.7737H283.418V79.6075ZM290.811 83.667H295.277L293.021 79.5529L290.811 83.667ZM288.337 88.3979H284.465L290.811 76.7737H295.339L301.569 88.3979H297.673L296.549 86.4618H289.469L288.337 88.3979ZM312.03 79.67H306.386V82.5116H312.03C312.504 82.5116 312.834 82.4023 313.021 82.1838C313.214 81.96 313.31 81.5592 313.31 80.9815C313.31 80.5235 313.209 80.1904 313.006 79.9823C312.803 79.7741 312.478 79.67 312.03 79.67ZM312.163 76.7737C314.005 76.7737 315.259 77.0469 315.926 77.5934C316.592 78.1399 316.925 79.1365 316.925 80.5834C316.925 81.5878 316.776 82.3347 316.48 82.8239C316.183 83.3131 315.686 83.641 314.989 83.8075C315.603 83.9533 316.063 84.2109 316.371 84.5804C316.678 84.9499 316.831 85.4287 316.831 86.0168V88.3979H313.279V86.6258C313.279 86.1678 313.17 85.8529 312.951 85.6812C312.738 85.5094 312.314 85.4235 311.679 85.4235H306.386V88.3979H302.826V76.7737H312.163ZM330.298 80.9659V80.8488C330.298 80.396 330.147 80.0655 329.845 79.8574C329.548 79.644 329.075 79.5373 328.424 79.5373H325.582C324.365 79.5373 323.581 79.6856 323.233 79.9823C322.889 80.2737 322.717 80.8878 322.717 81.8246V83.4406C322.717 84.2786 322.91 84.8536 323.295 85.1659C323.68 85.4782 324.443 85.6343 325.582 85.6343H327.643C328.773 85.6343 329.512 85.5224 329.86 85.2986C330.214 85.0696 330.391 84.6481 330.391 84.0339V83.909H333.99C333.99 83.9246 333.993 83.9533 333.998 83.9949C334.014 84.3332 334.021 84.5856 334.021 84.7522C334.021 85.4964 333.928 86.1105 333.74 86.5945C333.553 87.0786 333.259 87.4663 332.858 87.7577C332.478 88.0388 331.971 88.2392 331.336 88.3589C330.706 88.4786 329.78 88.5384 328.557 88.5384H324.591C323.378 88.5384 322.486 88.4734 321.913 88.3432C321.341 88.2131 320.852 87.9919 320.446 87.6797C319.977 87.3102 319.636 86.8574 319.423 86.3213C319.21 85.78 319.103 85.0983 319.103 84.276V81.1064C319.103 79.441 319.498 78.2804 320.289 77.6246C321.081 76.9637 322.514 76.6332 324.591 76.6332H328.557C329.832 76.6332 330.771 76.6904 331.375 76.8049C331.979 76.9194 332.455 77.112 332.804 77.3826C333.173 77.6637 333.444 78.0436 333.616 78.5224C333.792 78.996 333.881 79.5919 333.881 80.3101C333.881 80.4819 333.878 80.6146 333.873 80.7083C333.873 80.7968 333.868 80.8826 333.858 80.9659H330.298ZM339.533 88.3979H335.989V76.7737H339.533V81.044H346.809V76.7737H350.376V88.3979H346.809V83.8544H339.533V88.3979ZM364.35 85.5875H372.087V88.3979H360.798V76.7737H364.35V85.5875ZM377.185 88.3979H373.633V76.7737H377.185V88.3979ZM395.437 88.3979H390.237L383.266 79.9432V88.3979H379.722V76.7737H384.976L391.9 85.2986V76.7737H395.437V88.3979ZM410.418 79.6075H401.268V81.3641H409.887V83.8075H401.268V85.5875H410.558V88.3979H397.724V76.7737H410.418V79.6075Z" fill="url(#paint1_linear_107_138)"/>
<defs>
<radialGradient id="paint0_radial_107_138" cx="0" cy="0" r="1" gradientUnits="userSpaceOnUse" gradientTransform="translate(33.2518 24.5904) scale(22.5784 22.5784)">
<stop offset="0.40094" stop-opacity="0"/>
<stop offset="0.66127" stop-opacity="0.30419"/>
<stop offset="0.81407" stop-opacity="0.48274"/>
<stop offset="0.93868" stop-opacity="0.62835"/>
<stop offset="1" stop-opacity="0.7"/>
</radialGradient>
<linearGradient id="paint1_linear_107_138" x1="239.697" y1="73.3979" x2="239.697" y2="118.417" gradientUnits="userSpaceOnUse">
<stop stop-color="#5E4DA0"/>
<stop offset="1" stop-color="#3C3165"/>
</linearGradient>
</defs>
</svg>
