<svg width="178" height="178" viewBox="0 0 178 178" fill="none" xmlns="http://www.w3.org/2000/svg">
<path d="M177.346 89C177.346 137.714 137.714 177.346 89.0002 177.346C40.2864 177.346 0.654297 137.714 0.654297 89C0.654297 40.2861 40.2864 0.654114 89.0002 0.654114C111.78 0.654114 132.572 9.32328 148.256 23.5323C121.07 -0.434206 79.444 0.555556 53.4697 26.53C26.4512 53.5486 26.4512 97.5119 53.4703 124.531C80.4895 151.549 124.453 151.549 151.471 124.53C177.447 98.555 178.435 56.9265 154.465 29.7416C168.676 45.4259 177.346 66.2187 177.346 89Z" fill="#5E4DA0"/>
<path d="M53.4689 26.5299C26.4504 53.5486 26.4504 97.5119 53.4695 124.531C80.4886 151.549 124.452 151.549 151.47 124.53C177.446 98.555 178.434 56.9265 154.464 29.7416C152.498 27.5711 150.425 25.4988 148.255 23.5323C121.069 -0.434215 79.4432 0.555548 53.4689 26.5299ZM139.248 89C139.248 116.707 116.706 139.248 88.9993 139.248C61.293 139.248 38.7512 116.706 38.7512 89C38.7512 61.2933 61.293 38.752 88.9993 38.752C116.706 38.752 139.248 61.2933 139.248 89Z" fill="#5E4DA0"/>
<path opacity="0.59" d="M53.4689 26.5299C26.4504 53.5486 26.4504 97.5119 53.4695 124.531C80.4886 151.549 124.452 151.549 151.47 124.53C177.446 98.555 178.434 56.9265 154.464 29.7416C152.498 27.5711 150.425 25.4988 148.255 23.5323C121.069 -0.434215 79.4432 0.555548 53.4689 26.5299ZM139.248 89C139.248 116.707 116.706 139.248 88.9993 139.248C61.293 139.248 38.7512 116.706 38.7512 89C38.7512 61.2933 61.293 38.752 88.9993 38.752C116.706 38.752 139.248 61.2933 139.248 89Z" fill="url(#paint0_radial_107_139)"/>
<defs>
<radialGradient id="paint0_radial_107_139" cx="0" cy="0" r="1" gradientUnits="userSpaceOnUse" gradientTransform="translate(102.466 75.5339) scale(69.2607 69.2607)">
<stop offset="0.40094" stop-opacity="0"/>
<stop offset="0.66127" stop-opacity="0.30419"/>
<stop offset="0.81407" stop-opacity="0.48274"/>
<stop offset="0.93868" stop-opacity="0.62835"/>
<stop offset="1" stop-opacity="0.7"/>
</radialGradient>
</defs>
</svg>
