<svg width="380" height="380" viewBox="0 0 380 380" fill="none" xmlns="http://www.w3.org/2000/svg">
<path d="M161.145 0.598294C109.609 0.624335 61.1974 25.3116 30.9214 67.0196C0.640048 108.722 -7.84396 162.4 8.09338 211.406C24.0254 260.417 62.4627 298.833 111.479 314.756C160.495 330.677 214.167 322.172 255.865 291.881L336.059 372.074C342.444 378.46 351.752 380.949 360.471 378.616C369.195 376.277 376.001 369.465 378.34 360.747C380.679 352.023 378.184 342.72 371.798 336.335L291.605 256.141C315.026 223.948 325.684 184.215 321.506 144.62C317.335 105.027 298.632 68.3906 269.012 41.7866C239.392 15.1826 200.965 0.510561 161.152 0.593228L161.145 0.598294ZM161.145 272.118C131.839 272.118 103.729 260.478 83.0054 239.754C62.2867 219.03 50.6414 190.926 50.6414 161.618C50.6414 132.312 62.2872 104.202 83.0054 83.4783C103.729 62.7596 131.839 51.1143 161.145 51.1143C190.452 51.1143 218.557 62.7602 239.281 83.4783C260.005 104.202 271.645 132.312 271.645 161.618C271.614 190.916 259.958 218.998 239.244 239.717C218.525 260.43 190.441 272.086 161.145 272.118Z" fill="black"/>
</svg>
